<?xml version="1.0" encoding="UTF-8"?>
<svg id="Orig" xmlns="http://www.w3.org/2000/svg" viewBox="0 0 198.4 200.03">
  <defs>
    <style>
      .cls-1 {
        letter-spacing: 0em;
      }

      .cls-1, .cls-2, .cls-3 {
        fill: #287ea0;
      }

      .cls-4 {
        font-family: Nunito-Bold, Nunito;
        font-size: 41.17px;
        font-weight: 700;
      }

      .cls-5 {
        letter-spacing: 0em;
      }

      .cls-5, .cls-6 {
        fill: #212121;
      }

      .cls-7 {
        stroke-width: 4.91px;
      }

      .cls-7, .cls-8, .cls-9, .cls-10, .cls-11 {
        stroke: #287ea0;
        stroke-miterlimit: 10;
      }

      .cls-7, .cls-9, .cls-11 {
        fill: none;
      }

      .cls-8 {
        stroke-width: 2.84px;
      }

      .cls-8, .cls-12 {
        fill: #277ea0;
      }

      .cls-9 {
        stroke-width: 3.46px;
      }

      .cls-10 {
        fill: #1b586f;
      }

      .cls-10, .cls-11 {
        stroke-width: 3.87px;
      }

      .cls-3 {
        letter-spacing: -.02em;
      }
    </style>
  </defs>
  <g>
    <polygon class="cls-7" points="65.42 136.57 64.91 112.1 33.75 99.46 13.49 71.4 26.01 29.34 59.84 6.59 112.2 2.48 161.69 15.07 184.92 48.68 181.5 71.76 157.98 80.11 138.17 102.35 99.2 106.63 65.42 136.57"/>
    <path class="cls-8" d="m64.09,53.19c0-5.68-.09-11.36.08-17.03.03-1.02.85-2.47,1.73-2.96,10.54-5.79,21.15-11.46,31.79-17.06.8-.42,2.21-.44,3.01-.02,10.64,5.6,21.22,11.32,31.84,16.96,1.32.7,1.8,1.54,1.79,3.03-.06,11.27-.07,22.54.01,33.81.01,1.56-.63,2.3-1.89,2.96-10.47,5.56-20.93,11.14-31.34,16.8-1.37.74-2.39.77-3.78.02-10.42-5.66-20.87-11.24-31.35-16.79-1.38-.73-1.97-1.59-1.94-3.21.1-5.5.04-11.01.04-16.52Zm33.81,34.33c.13-.51.24-.74.24-.97.01-10.48.05-20.97-.06-31.45,0-.82-.91-1.96-1.7-2.39-9.33-5.11-18.72-10.12-28.1-15.14-.56-.3-1.2-.46-1.98-.75-.05.94-.11,1.61-.11,2.28,0,9.71.05,19.42-.06,29.13-.02,1.86.69,2.72,2.23,3.53,7.14,3.74,14.23,7.6,21.34,11.41,2.7,1.44,5.4,2.87,8.21,4.36Zm34.32-51.04c-10.65,5.7-20.8,11.1-30.87,16.62-.64.35-1.05,1.67-1.06,2.54-.08,8.08-.05,16.17-.05,24.25,0,2.45,0,4.91,0,7.35.46,0,.65.06.77,0,10-5.34,20.01-10.65,29.95-16.09.67-.36,1.17-1.62,1.2-2.47.11-4.81.06-9.63.06-14.44,0-5.75,0-11.49,0-17.75Zm-1.39-1.87c-10.37-5.55-20.48-11-30.65-16.35-.64-.33-1.82-.1-2.54.27-5.18,2.69-10.3,5.48-15.44,8.24-4.79,2.57-9.59,5.15-14.63,7.86.81.51,1.29.85,1.8,1.12,9.3,4.99,18.62,9.93,27.88,14.99,1.49.81,2.58.73,4.01-.05,9.19-5,18.43-9.92,27.65-14.87.58-.31,1.12-.71,1.92-1.22Z"/>
    <circle class="cls-12" cx="64.05" cy="70.73" r="7.74"/>
    <polyline class="cls-11" points="26.01 28.58 66.13 34.72 60.5 6.11"/>
    <circle class="cls-12" cx="65.42" cy="34.11" r="7.74"/>
    <path class="cls-9" d="m62.67,36.49L15.98,70.66c-.31.23-.15.73.24.72l44.62-.65-24.96,28.17"/>
    <path class="cls-11" d="m63.2,74.53l.84,35.38c.01.5.45.88.94.82l32.48-4.02c.4-.05,1.72-.32,1.75-.73l-.46-18.71"/>
    <circle class="cls-12" cx="99.61" cy="51.33" r="7.74"/>
    <circle class="cls-12" cx="132.24" cy="35.92" r="7.74"/>
    <circle class="cls-12" cx="132.55" cy="70.36" r="7.74"/>
    <circle class="cls-12" cx="99.61" cy="17.65" r="7.74"/>
    <line class="cls-10" x1="79.74" y1="6.11" x2="99.61" y2="17.65"/>
    <polyline class="cls-11" points="183.99 47.34 133.24 36.49 161.69 15.07"/>
    <polyline class="cls-11" points="182.66 48.68 130.97 71.15 157.98 80.11"/>
    <circle class="cls-12" cx="99.65" cy="87.17" r="7.74"/>
    <line class="cls-11" x1="132.55" y1="70.36" x2="123.15" y2="102.82"/>
    <line class="cls-10" x1="131.51" y1="7.39" x2="98.15" y2="17.65"/>
  </g>
  <text class="cls-4" transform="translate(0 188.71)"><tspan class="cls-6" x="0" y="0">B</tspan><tspan class="cls-5" x="28.12" y="0">R</tspan><tspan class="cls-6" x="56.4" y="0">AIN</tspan><tspan class="cls-1" x="129.28" y="0">I</tspan><tspan class="cls-3" x="140.85" y="0">A</tspan><tspan class="cls-2" x="170.49" y="0">C</tspan></text>
</svg>